<svg width="24" height="26" viewBox="0 0 24 26" fill="none" xmlns="http://www.w3.org/2000/svg">
<path id="Vector" d="M3.99992 19.6686C2.52716 19.6686 1.33325 20.8625 1.33325 22.3353C1.33325 23.808 2.52716 25.002 3.99992 25.002C5.47268 25.002 6.66659 23.808 6.66659 22.3353C6.66659 20.8625 5.47268 19.6686 3.99992 19.6686ZM3.99992 19.6686H18.6666M3.99992 19.6686V1.00195H1.33325M18.6666 19.6686C17.1938 19.6686 15.9999 20.8625 15.9999 22.3353C15.9999 23.808 17.1938 25.002 18.6666 25.002C20.1393 25.002 21.3333 23.808 21.3333 22.3353C21.3333 20.8625 20.1393 19.6686 18.6666 19.6686ZM3.99992 3.66862L22.6666 5.00195L21.3333 14.3353H3.99992" stroke="white" stroke-width="1.5" stroke-linecap="round" stroke-linejoin="round"/>
</svg>
