<svg width="16" height="16" viewBox="0 0 16 16" fill="none" xmlns="http://www.w3.org/2000/svg">
<g id="Icons">
<path id="Vector" d="M11.3333 11.3333V12.6667C11.3333 13.0203 11.1929 13.3594 10.9428 13.6095C10.6928 13.8595 10.3536 14 10 14H3.33333C2.97971 14 2.64057 13.8595 2.39052 13.6095C2.14048 13.3594 2 13.0203 2 12.6667V6C2 5.64638 2.14048 5.30724 2.39052 5.05719C2.64057 4.80714 2.97971 4.66667 3.33333 4.66667H4.66667M6 2H12.6667C13.403 2 14 2.59695 14 3.33333V10C14 10.7364 13.403 11.3333 12.6667 11.3333H6C5.26362 11.3333 4.66667 10.7364 4.66667 10V3.33333C4.66667 2.59695 5.26362 2 6 2Z" stroke="white" stroke-linecap="round" stroke-linejoin="round"/>
</g>
</svg>
