<svg width="20" height="20" viewBox="0 0 20 20" fill="none" xmlns="http://www.w3.org/2000/svg">
<g id="Icons">
<g id="Vector">
<path d="M7.49984 4.99967C7.96007 4.99967 8.33317 4.62658 8.33317 4.16634C8.33317 3.7061 7.96007 3.33301 7.49984 3.33301C7.0396 3.33301 6.6665 3.7061 6.6665 4.16634C6.6665 4.62658 7.0396 4.99967 7.49984 4.99967Z" stroke="#1E1E1E" stroke-width="2" stroke-linecap="round" stroke-linejoin="round"/>
<path d="M7.49984 10.833C7.96007 10.833 8.33317 10.4599 8.33317 9.99967C8.33317 9.53944 7.96007 9.16634 7.49984 9.16634C7.0396 9.16634 6.6665 9.53944 6.6665 9.99967C6.6665 10.4599 7.0396 10.833 7.49984 10.833Z" stroke="#1E1E1E" stroke-width="2" stroke-linecap="round" stroke-linejoin="round"/>
<path d="M7.49984 16.6663C7.96007 16.6663 8.33317 16.2932 8.33317 15.833C8.33317 15.3728 7.96007 14.9997 7.49984 14.9997C7.0396 14.9997 6.6665 15.3728 6.6665 15.833C6.6665 16.2932 7.0396 16.6663 7.49984 16.6663Z" stroke="#1E1E1E" stroke-width="2" stroke-linecap="round" stroke-linejoin="round"/>
<path d="M12.4998 4.99967C12.9601 4.99967 13.3332 4.62658 13.3332 4.16634C13.3332 3.7061 12.9601 3.33301 12.4998 3.33301C12.0396 3.33301 11.6665 3.7061 11.6665 4.16634C11.6665 4.62658 12.0396 4.99967 12.4998 4.99967Z" stroke="#1E1E1E" stroke-width="2" stroke-linecap="round" stroke-linejoin="round"/>
<path d="M12.4998 10.833C12.9601 10.833 13.3332 10.4599 13.3332 9.99967C13.3332 9.53944 12.9601 9.16634 12.4998 9.16634C12.0396 9.16634 11.6665 9.53944 11.6665 9.99967C11.6665 10.4599 12.0396 10.833 12.4998 10.833Z" stroke="#1E1E1E" stroke-width="2" stroke-linecap="round" stroke-linejoin="round"/>
<path d="M12.4998 16.6663C12.9601 16.6663 13.3332 16.2932 13.3332 15.833C13.3332 15.3728 12.9601 14.9997 12.4998 14.9997C12.0396 14.9997 11.6665 15.3728 11.6665 15.833C11.6665 16.2932 12.0396 16.6663 12.4998 16.6663Z" stroke="#1E1E1E" stroke-width="2" stroke-linecap="round" stroke-linejoin="round"/>
</g>
</g>
</svg>
