<svg width="16" height="16" viewBox="0 0 16 16" fill="none" xmlns="http://www.w3.org/2000/svg">
<g id="Icons">
<path id="Vector" d="M3.66674 3.33301H12.3334C12.4294 3.36668 12.5164 3.42188 12.5878 3.49438C12.6592 3.56689 12.7131 3.65476 12.7452 3.75129C12.7774 3.84781 12.7871 3.95042 12.7735 4.05125C12.7598 4.15208 12.7233 4.24846 12.6667 4.33301L9.3334 7.99967V12.6663L6.66674 10.6663V7.99967L3.3334 4.33301C3.2768 4.24846 3.2403 4.15208 3.22669 4.05125C3.21309 3.95042 3.22274 3.84781 3.25491 3.75129C3.28709 3.65476 3.34093 3.56689 3.41231 3.49438C3.4837 3.42188 3.57073 3.36668 3.66674 3.33301Z" stroke="white" stroke-linecap="round" stroke-linejoin="round"/>
</g>
</svg>
