<svg width="26" height="26" viewBox="0 0 26 26" fill="none" xmlns="http://www.w3.org/2000/svg">
<path id="Vector" d="M7.0007 2.50097C7.0007 1.67245 6.32905 1.0008 5.50053 1.0008H2.50018C1.67165 1.0008 1 1.67245 1 2.50097V23.5034C1 24.332 1.67165 25.0036 2.50018 25.0036H5.50053C6.32905 25.0036 7.0007 24.332 7.0007 23.5034M7.0007 2.50097V23.5034M7.0007 2.50097C7.0007 1.67245 7.67236 1.0008 8.50088 1.0008H11.5012C12.3298 1.0008 13.0014 1.67245 13.0014 2.50097V23.5034C13.0014 24.332 12.3298 25.0036 11.5012 25.0036H8.50088C7.67236 25.0036 7.0007 24.332 7.0007 23.5034M1 7.0015H7.0007M7.0007 19.0029H13.0014M14.5016 8.50168L20.5023 7.0015M17.5019 19.0029L23.3871 17.5327M14.206 1.84089L17.4824 1.0458C18.3255 0.843278 19.1821 1.33084 19.4057 2.14393L24.9488 22.2733C25.0466 22.6418 25.0033 23.0336 24.8274 23.3718C24.6514 23.7101 24.3556 23.9705 23.9977 24.102L23.7982 24.1635L20.5218 24.9586C19.6787 25.1611 18.8221 24.6736 18.5986 23.8605L13.0554 3.73112C12.9576 3.3626 13.0009 2.97085 13.1769 2.63259C13.3528 2.29433 13.6487 2.03393 14.0065 1.9024L14.206 1.84089Z" stroke="white" stroke-width="1.5" stroke-linecap="round" stroke-linejoin="round"/>
</svg>
