<svg width="26" height="26" viewBox="0 0 26 26" fill="none" xmlns="http://www.w3.org/2000/svg">
<path id="Vector" d="M1 25.002V22.3353C1 20.9208 1.5619 19.5642 2.5621 18.5641C3.56229 17.5639 4.91885 17.002 6.33333 17.002H11.6667C13.0812 17.002 14.4377 17.5639 15.4379 18.5641C16.4381 19.5642 17 20.9208 17 22.3353V25.002M18.3333 1.17529C19.4806 1.46903 20.4974 2.13623 21.2235 3.07171C21.9497 4.00719 22.3438 5.15773 22.3438 6.34196C22.3438 7.52619 21.9497 8.67673 21.2235 9.61221C20.4974 10.5477 19.4806 11.2149 18.3333 11.5086M25 25.002V22.3353C24.9932 21.1582 24.5972 20.0164 23.8737 19.0879C23.1502 18.1593 22.1398 17.4963 21 17.202M14.3333 6.33529C14.3333 9.2808 11.9455 11.6686 9 11.6686C6.05448 11.6686 3.66667 9.2808 3.66667 6.33529C3.66667 3.38977 6.05448 1.00195 9 1.00195C11.9455 1.00195 14.3333 3.38977 14.3333 6.33529Z" stroke="white" stroke-width="1.5" stroke-linecap="round" stroke-linejoin="round"/>
</svg>
